<?xml version="1.0" standalone="no"?><!DOCTYPE svg PUBLIC "-//W3C//DTD SVG 1.1//EN" "http://www.w3.org/Graphics/SVG/1.1/DTD/svg11.dtd"><svg t="1589504413502" class="icon" viewBox="0 0 1024 1024" version="1.1" xmlns="http://www.w3.org/2000/svg" p-id="11672" xmlns:xlink="http://www.w3.org/1999/xlink" width="200" height="200"><defs><style type="text/css"></style></defs><path d="M512 64C265.6 64 64 265.6 64 512s201.6 448 448 448 448-201.6 448-448S758.4 64 512 64z m0 832C300.8 896 128 723.2 128 512S300.8 128 512 128s384 172.8 384 384-172.8 384-384 384z" fill="#231815" p-id="11673"></path><path d="M512 425.6c-19.2 0-32 12.8-32 32v256c0 19.2 12.8 32 32 32s32-12.8 32-32v-256c0-19.2-12.8-32-32-32z" fill="#231815" p-id="11674"></path><path d="M512 332.8m-48 0a48 48 0 1 0 96 0 48 48 0 1 0-96 0Z" fill="#231815" p-id="11675"></path></svg>