<?xml version="1.0" standalone="no"?><!DOCTYPE svg PUBLIC "-//W3C//DTD SVG 1.1//EN" "http://www.w3.org/Graphics/SVG/1.1/DTD/svg11.dtd"><svg t="1589504152740" class="icon" viewBox="0 0 1024 1024" version="1.1" xmlns="http://www.w3.org/2000/svg" p-id="3719" data-spm-anchor-id="a313x.7781069.0.i0" xmlns:xlink="http://www.w3.org/1999/xlink" width="200" height="200"><defs><style type="text/css"></style></defs><path d="M814.08 0H209.92C97.28 0 0 107.52 0 235.52v552.96C0 916.48 97.28 1024 209.92 1024h599.04c117.76 0 209.92-107.52 209.92-235.52V235.52c5.12-128-92.16-235.52-204.8-235.52zM972.8 788.48c0 97.28-71.68 179.2-158.72 179.2H209.92c-87.04 0-158.72-81.92-158.72-179.2V235.52c0-97.28 71.68-179.2 158.72-179.2h599.04c87.04 0 158.72 76.8 158.72 179.2v552.96h5.12z" fill="#ffffff" p-id="3720" data-spm-anchor-id="a313x.7781069.0.i2" class="selected"></path><path d="M363.52 194.56H204.8c-15.36 0-25.6 15.36-25.6 30.72v179.2c0 15.36 10.24 30.72 25.6 30.72s25.6-15.36 25.6-30.72V256h133.12c15.36 0 25.6-15.36 25.6-30.72s-10.24-30.72-25.6-30.72M363.52 768H230.4v-148.48c0-15.36-10.24-30.72-25.6-30.72s-25.6 15.36-25.6 30.72v179.2c0 15.36 10.24 30.72 25.6 30.72h158.72c15.36 0 25.6-15.36 25.6-30.72s-10.24-30.72-25.6-30.72M839.68 194.56h-158.72c-15.36 0-25.6 15.36-25.6 30.72s10.24 30.72 25.6 30.72h133.12v148.48c0 15.36 10.24 30.72 25.6 30.72s25.6-15.36 25.6-30.72V225.28c0-15.36-10.24-30.72-25.6-30.72M839.68 588.8c-15.36 0-25.6 15.36-25.6 30.72V768h-133.12c-15.36 0-25.6 15.36-25.6 30.72s10.24 30.72 25.6 30.72h158.72c15.36 0 25.6-15.36 25.6-30.72v-179.2c0-15.36-10.24-30.72-25.6-30.72" fill="#ffffff" p-id="3721" data-spm-anchor-id="a313x.7781069.0.i1" class="selected"></path></svg>