<?xml version="1.0" standalone="no"?><!DOCTYPE svg PUBLIC "-//W3C//DTD SVG 1.1//EN" "http://www.w3.org/Graphics/SVG/1.1/DTD/svg11.dtd"><svg t="1589505520068" class="icon" viewBox="0 0 1024 1024" version="1.1" xmlns="http://www.w3.org/2000/svg" p-id="18987" xmlns:xlink="http://www.w3.org/1999/xlink" width="200" height="200"><defs><style type="text/css"></style></defs><path d="M999.936 407.552L802.816 163.84c-5.12-4.608-11.776-8.704-17.92-11.264-13.824-15.872-33.792-25.088-54.784-25.088h-72.704c0 80.384-65.024 145.408-145.408 145.408h-0.512v654.336h216.576c19.456 0 37.888-7.68 51.712-21.504s21.504-32.256 21.504-51.712v-233.984c28.672 20.992 68.096 17.92 93.696-6.656L998.4 509.952c14.336-13.312 22.016-31.744 22.528-51.712 0-18.432-7.168-36.864-20.992-50.688z m0 0" fill="#45B4F5" p-id="18988"></path><path d="M366.592 128H293.888c-20.992 0-40.96 9.216-54.784 25.088-6.656 2.56-12.8 6.656-17.92 11.264L24.576 412.672C10.752 426.496 3.072 444.928 3.072 464.384s7.68 37.888 21.504 51.712l104.448 102.912c25.088 24.064 64 27.136 92.16 7.168V855.04c0 19.456 7.68 37.888 21.504 51.712 13.824 13.824 32.256 21.504 51.712 21.504H512v-655.36c-80.384 0-145.408-65.024-145.408-144.896z m0 0" fill="#7ECFFF" p-id="18989"></path></svg>