<?xml version="1.0" standalone="no"?><!DOCTYPE svg PUBLIC "-//W3C//DTD SVG 1.1//EN" "http://www.w3.org/Graphics/SVG/1.1/DTD/svg11.dtd"><svg t="1589505476934" class="icon" viewBox="0 0 1024 1024" version="1.1" xmlns="http://www.w3.org/2000/svg" p-id="18846" xmlns:xlink="http://www.w3.org/1999/xlink" width="200" height="200"><defs><style type="text/css"></style></defs><path d="M529.687273 364.730182l3.040969 599.04L977.454545 806.105212l-3.072-599.04z" fill="#0563A7" p-id="18847"></path><path d="M46.545455 218.360242l477.24606 208.337455L974.351515 207.065212 498.688 0z" fill="#65BFFF" p-id="18848"></path><path d="M49.648485 817.276121L529.687273 1024l-3.103031-598.915879L46.545455 218.360242z" fill="#3FA8F2" p-id="18849"></path><path d="M523.791515 426.232242L526.863515 1024 977.454545 804.83297l-3.072-597.767758z" fill="#3093DA" p-id="18850"></path><path d="M523.791515 387.723636l2.048 399.36L822.30303 681.984l-2.048-399.36z" fill="#0563A7" p-id="18851"></path><path d="M201.69697 290.133333l318.153697 138.922667 300.404363-146.46303L503.125333 144.570182z" fill="#B7E1FF" p-id="18852"></path><path d="M203.74497 689.400242L523.791515 827.236848l-2.07903-399.266909L201.69697 290.102303z" fill="#C4EDFF" p-id="18853"></path><path d="M519.850667 428.714667L521.929697 827.236848 822.30303 681.115152 820.25503 282.65503z" fill="#8ED0FF" p-id="18854"></path></svg>